# xmcd
#
# Track frame offsets:
# 150
# 21838
# 39528
# 60614
# 78886
# 95909
# 116728
# 142544
# 161220
# 181531
#
# Disc length: 2695 seconds
#
#
# Revision: 0
# Processed by: cddbd v1.5.2PL0 Copyright (c) Steve Scherf et al.
# Submitted via: FreeRIP 2.945 
#
DISCID=780a850a
DTITLE=Steel String Theory - The North Bucombe Years
DYEAR=1900
DGENRE=Bluegrass
TTITLE0=Scratch in the Henhouse
TTITLE1=Buncombe County Woman
TTITLE2=Beech Valley Cabin
TTITLE3=One Horse Man
TTITLE4=Black as the Valley
TTITLE5=Over Easy
TTITLE6=Cold Iron Chain
TTITLE7=Mystic Whaler
TTITLE8=Country Boy
TTITLE9=Silent Lapse of Soul
EXTD=
EXTT0=
EXTT1=
EXTT2=
EXTT3=
EXTT4=
EXTT5=
EXTT6=
EXTT7=
EXTT8=
EXTT9=
PLAYORDER=
